{
	"asset":{
		"generator":"Khronos glTF Blender I/O v3.5.30",
		"version":"2.0"
	},
	"extensionsUsed":[
		"KHR_materials_specular",
		"KHR_materials_ior"
	],
	"scene":0,
	"scenes":[
		{
			"name":"Scene",
			"nodes":[
				0,
				1,
				2,
				3
			]
		}
	],
	"nodes":[
		{
			"mesh":0,
			"name":"Cube",
			"scale":[
				1.7045865058898926,
				1,
				1
			]
		},
		{
			"mesh":1,
			"name":"Cylinder",
			"rotation":[
				0.7071068286895752,
				0,
				0,
				0.7071068286895752
			],
			"scale":[
				0.7884435653686523,
				0.7884435653686523,
				0.7884435653686523
			],
			"translation":[
				0,
				-0.062887042760849,
				1.3014124631881714
			]
		},
		{
			"mesh":2,
			"name":"Cylinder.001",
			"scale":[
				0.28561460971832275,
				0.0912594422698021,
				0.28561460971832275
			],
			"translation":[
				1.208672285079956,
				0.9836211204528809,
				-0.16037875413894653
			]
		},
		{
			"mesh":3,
			"name":"Cube.001",
			"scale":[
				0.27627620100975037,
				0.16371291875839233,
				0.16371291875839233
			],
			"translation":[
				-1.22486412525177,
				0.94951331615448,
				-0.32319319248199463
			]
		}
	],
	"materials":[
		{
			"doubleSided":true,
			"name":"Silver",
			"pbrMetallicRoughness":{
				"baseColorFactor":[
					0.3843748867511749,
					0.3843748867511749,
					0.3843748867511749,
					1
				],
				"metallicFactor":0,
				"roughnessFactor":0.5
			}
		},
		{
			"doubleSided":true,
			"name":"Black",
			"pbrMetallicRoughness":{
				"baseColorFactor":[
					0.017387747764587402,
					0.016965681686997414,
					0.015738653019070625,
					1
				],
				"metallicFactor":0,
				"roughnessFactor":0.5
			}
		},
		{
			"doubleSided":true,
			"extensions":{
				"KHR_materials_specular":{
					"specularColorFactor":[
						1.7192343270075847,
						1.7192343270075847,
						1.7192343270075847
					]
				},
				"KHR_materials_ior":{
					"ior":1.4500000476837158
				}
			},
			"name":"Blue",
			"pbrMetallicRoughness":{
				"baseColorFactor":[
					0.3988763093948364,
					0.7771363258361816,
					0.8000000715255737,
					1
				],
				"metallicFactor":0.18333333730697632,
				"roughnessFactor":0.5
			}
		}
	],
	"meshes":[
		{
			"name":"Cube.001",
			"primitives":[
				{
					"attributes":{
						"POSITION":0,
						"TEXCOORD_0":1,
						"NORMAL":2
					},
					"indices":3,
					"material":0
				},
				{
					"attributes":{
						"POSITION":4,
						"TEXCOORD_0":5,
						"NORMAL":6
					},
					"indices":7,
					"material":1
				}
			]
		},
		{
			"name":"Cylinder",
			"primitives":[
				{
					"attributes":{
						"POSITION":8,
						"TEXCOORD_0":9,
						"NORMAL":10
					},
					"indices":11,
					"material":0
				},
				{
					"attributes":{
						"POSITION":12,
						"TEXCOORD_0":13,
						"NORMAL":14
					},
					"indices":15,
					"material":1
				},
				{
					"attributes":{
						"POSITION":16,
						"TEXCOORD_0":17,
						"NORMAL":18
					},
					"indices":19,
					"material":2
				}
			]
		},
		{
			"name":"Cylinder.001",
			"primitives":[
				{
					"attributes":{
						"POSITION":20,
						"TEXCOORD_0":21,
						"NORMAL":22
					},
					"indices":23
				}
			]
		},
		{
			"name":"Cube.002",
			"primitives":[
				{
					"attributes":{
						"POSITION":24,
						"TEXCOORD_0":25,
						"NORMAL":26
					},
					"indices":27
				}
			]
		}
	],
	"accessors":[
		{
			"bufferView":0,
			"componentType":5126,
			"count":176,
			"max":[
				0.9999999403953552,
				1.1682816743850708,
				0.5713056325912476
			],
			"min":[
				-0.9999999403953552,
				-0.9999999403953552,
				-0.5713056325912476
			],
			"type":"VEC3"
		},
		{
			"bufferView":1,
			"componentType":5126,
			"count":176,
			"type":"VEC2"
		},
		{
			"bufferView":2,
			"componentType":5126,
			"count":176,
			"type":"VEC3"
		},
		{
			"bufferView":3,
			"componentType":5123,
			"count":354,
			"type":"SCALAR"
		},
		{
			"bufferView":4,
			"componentType":5126,
			"count":28,
			"max":[
				0.9999999403953552,
				1.0738509893417358,
				0.5713056325912476
			],
			"min":[
				-0.9999999403953552,
				-0.8402249217033386,
				-0.5713056325912476
			],
			"type":"VEC3"
		},
		{
			"bufferView":5,
			"componentType":5126,
			"count":28,
			"type":"VEC2"
		},
		{
			"bufferView":6,
			"componentType":5126,
			"count":28,
			"type":"VEC3"
		},
		{
			"bufferView":7,
			"componentType":5123,
			"count":54,
			"type":"SCALAR"
		},
		{
			"bufferView":8,
			"componentType":5126,
			"count":134,
			"max":[
				1,
				0.2044052630662918,
				1
			],
			"min":[
				-1,
				-1,
				-1.0000001192092896
			],
			"type":"VEC3"
		},
		{
			"bufferView":9,
			"componentType":5126,
			"count":134,
			"type":"VEC2"
		},
		{
			"bufferView":10,
			"componentType":5126,
			"count":134,
			"type":"VEC3"
		},
		{
			"bufferView":11,
			"componentType":5123,
			"count":246,
			"type":"SCALAR"
		},
		{
			"bufferView":12,
			"componentType":5126,
			"count":296,
			"max":[
				0.8617415428161621,
				0.6503011584281921,
				0.8617414236068726
			],
			"min":[
				-0.8617415428161621,
				-0.4083714485168457,
				-0.8617416024208069
			],
			"type":"VEC3"
		},
		{
			"bufferView":13,
			"componentType":5126,
			"count":296,
			"type":"VEC2"
		},
		{
			"bufferView":14,
			"componentType":5126,
			"count":296,
			"type":"VEC3"
		},
		{
			"bufferView":15,
			"componentType":5123,
			"count":576,
			"type":"SCALAR"
		},
		{
			"bufferView":16,
			"componentType":5126,
			"count":64,
			"max":[
				0.3669337332248688,
				0.5518472194671631,
				0.366933673620224
			],
			"min":[
				-0.3669337332248688,
				0.4964229464530945,
				-0.36693379282951355
			],
			"type":"VEC3"
		},
		{
			"bufferView":17,
			"componentType":5126,
			"count":64,
			"type":"VEC2"
		},
		{
			"bufferView":18,
			"componentType":5126,
			"count":64,
			"type":"VEC3"
		},
		{
			"bufferView":19,
			"componentType":5123,
			"count":246,
			"type":"SCALAR"
		},
		{
			"bufferView":20,
			"componentType":5126,
			"count":72,
			"max":[
				1,
				1,
				1
			],
			"min":[
				-1,
				-1,
				-1
			],
			"type":"VEC3"
		},
		{
			"bufferView":21,
			"componentType":5126,
			"count":72,
			"type":"VEC2"
		},
		{
			"bufferView":22,
			"componentType":5126,
			"count":72,
			"type":"VEC3"
		},
		{
			"bufferView":23,
			"componentType":5123,
			"count":132,
			"type":"SCALAR"
		},
		{
			"bufferView":24,
			"componentType":5126,
			"count":24,
			"max":[
				1,
				1,
				1
			],
			"min":[
				-1,
				-1,
				-1
			],
			"type":"VEC3"
		},
		{
			"bufferView":25,
			"componentType":5126,
			"count":24,
			"type":"VEC2"
		},
		{
			"bufferView":26,
			"componentType":5126,
			"count":24,
			"type":"VEC3"
		},
		{
			"bufferView":27,
			"componentType":5123,
			"count":36,
			"type":"SCALAR"
		}
	],
	"bufferViews":[
		{
			"buffer":0,
			"byteLength":2112,
			"byteOffset":0,
			"target":34962
		},
		{
			"buffer":0,
			"byteLength":1408,
			"byteOffset":2112,
			"target":34962
		},
		{
			"buffer":0,
			"byteLength":2112,
			"byteOffset":3520,
			"target":34962
		},
		{
			"buffer":0,
			"byteLength":708,
			"byteOffset":5632,
			"target":34963
		},
		{
			"buffer":0,
			"byteLength":336,
			"byteOffset":6340,
			"target":34962
		},
		{
			"buffer":0,
			"byteLength":224,
			"byteOffset":6676,
			"target":34962
		},
		{
			"buffer":0,
			"byteLength":336,
			"byteOffset":6900,
			"target":34962
		},
		{
			"buffer":0,
			"byteLength":108,
			"byteOffset":7236,
			"target":34963
		},
		{
			"buffer":0,
			"byteLength":1608,
			"byteOffset":7344,
			"target":34962
		},
		{
			"buffer":0,
			"byteLength":1072,
			"byteOffset":8952,
			"target":34962
		},
		{
			"buffer":0,
			"byteLength":1608,
			"byteOffset":10024,
			"target":34962
		},
		{
			"buffer":0,
			"byteLength":492,
			"byteOffset":11632,
			"target":34963
		},
		{
			"buffer":0,
			"byteLength":3552,
			"byteOffset":12124,
			"target":34962
		},
		{
			"buffer":0,
			"byteLength":2368,
			"byteOffset":15676,
			"target":34962
		},
		{
			"buffer":0,
			"byteLength":3552,
			"byteOffset":18044,
			"target":34962
		},
		{
			"buffer":0,
			"byteLength":1152,
			"byteOffset":21596,
			"target":34963
		},
		{
			"buffer":0,
			"byteLength":768,
			"byteOffset":22748,
			"target":34962
		},
		{
			"buffer":0,
			"byteLength":512,
			"byteOffset":23516,
			"target":34962
		},
		{
			"buffer":0,
			"byteLength":768,
			"byteOffset":24028,
			"target":34962
		},
		{
			"buffer":0,
			"byteLength":492,
			"byteOffset":24796,
			"target":34963
		},
		{
			"buffer":0,
			"byteLength":864,
			"byteOffset":25288,
			"target":34962
		},
		{
			"buffer":0,
			"byteLength":576,
			"byteOffset":26152,
			"target":34962
		},
		{
			"buffer":0,
			"byteLength":864,
			"byteOffset":26728,
			"target":34962
		},
		{
			"buffer":0,
			"byteLength":264,
			"byteOffset":27592,
			"target":34963
		},
		{
			"buffer":0,
			"byteLength":288,
			"byteOffset":27856,
			"target":34962
		},
		{
			"buffer":0,
			"byteLength":192,
			"byteOffset":28144,
			"target":34962
		},
		{
			"buffer":0,
			"byteLength":288,
			"byteOffset":28336,
			"target":34962
		},
		{
			"buffer":0,
			"byteLength":72,
			"byteOffset":28624,
			"target":34963
		}
	],
	"buffers":[
		{
			"byteLength":28696,
			"uri":"data:application/octet-stream;base64,"
		}
	]
}
